_________________________  Visit us at _________________________
  
http://p2pdl.com  ____________________________  http://p2pdl.com


Jurassic Park 1993 BRRip 720p x264 AAC - PRiSTiNE [P2PDL]

Genre: Adventure | Sci-Fi
Plot: During a preview tour, a theme park suffers a 
major power breakdown that allows its cloned 
dinosaur exhibits to run amok.
Director: Steven Spielberg
Stars: Sam Neill, Laura Dern, Jeff Goldblum
Rated: Rated PG-13 for intense science fiction terror

Info: 
http://www.imdb.com/title/tt0107290/

General
Complete name                  : Jurassic Park 1993 BRRip 720p x264 AAC - PRiSTiNE.mp4
Format                         : MPEG-4
Format profile                 : Base Media
Codec ID                       : isom
File size                      : 802 MiB
Duration                       : 2h 6mn
Overall bit rate mode          : Variable
Overall bit rate               : 885 Kbps

Video
Format                         : AVC
Format/Info                    : Advanced Video Codec
Format profile                 : High 10@L4.1
Bit rate                       : 803 Kbps
Width                          : 1 280 pixels
Height                         : 688 pixels
Display aspect ratio           : 1.85:1
Frame rate mode                : Constant
Frame rate                     : 23.976 fps
Bit depth                      : 10 bits
Stream size                    : 727 MiB (91%)
Writing library                : x264 core 130 r2273 b3065e6

Audio
Format                         : AAC
Format/Info                    : Advanced Audio Codec
Bit rate                       : 79.9 Kbps
Channel(s)                     : 2 channels
Channel positions              : Front: L R
Sampling rate                  : 48.0 KHz / 24.0 KHz
Stream size                    : 72.4 MiB (9%)
Language                       : English

Subtitle                       : Yes (English)
Source                         : 720p.Blu-ray.x264-CtrlHD (Thanks)

Screens:
 
http://www.ultraimg.com/images/1sgOD.jpg 
http://www.ultraimg.com/images/6hJpa.jpg 
http://www.ultraimg.com/images/ICcd8.jpg 
http://www.ultraimg.com/images/nqDov.jpg 
http://www.ultraimg.com/images/1qOgY.jpg 
http://www.ultraimg.com/images/5QaZ.jpg

----------------------------------------------------------------------------------------------------


Encoded using revolutionary 10bit encoding, which enables us to provide you more crispier 
and sharper images at small sizes, just make sure you follow our instructions without a fault.
Recommend to you to use latest version of VLC player. Install K-Lite Codec Pack or shark007 codecs
in case of any kind of problem in playback (For non-VLC Media Player users). Alternatively, install
Core AVC codecs, the fastest decoder that there is coupled with Community Center Codec Pack and play
on Windows Media Player Classic. Check sample to be sure.
Enjoy!

Encoder Notes:Looking For Early Access To Anything You Can Provide DVDScr, R5, DVDR, BluRay, Direct
Audio, Music Releases and Seedboxes. We require dedicated servers, so as to do more 
and fast releases of movies.
If You Got anything to offer please contact us at "prg@hush.com".

Face book Fan Page:   
http://www.fb.me/p2pdl